# xmcd
#
# Track frame offsets:
#	150
#	14356
#	26205
#	41259
#	56235
#	69935
#	85532
#	100561
#	119763
#	134901
#	149642
#	163758
#	177542
#	194398
#	209262
#	224324
#	239870
#	255461
#	277339
#	300149
#	316392
#	328864
#
# Disc length: 4549 seconds
#
# Revision: 0
# Processed by: cddbd v1.5PL3 Copyright (c) Steve Scherf et al.
# Submitted via: dBpowerAMP V4.0
#
DISCID=5711c316
DTITLE=Diamond Rio - Platinum Collection
DYEAR=1900
DGENRE=
TTITLE0=Calling All Hearts (Come Back Home)
TTITLE1=Close To The Edge
TTITLE2=Demons And Angels
TTITLE3=I Was Meant To Be With You
TTITLE4=In A Week Or Two
TTITLE5=It Does Get Better Than This
TTITLE6=It's Gone
TTITLE7=Mama Don't Forget To Pray For Me
TTITLE8=Meet Me In The Middle
TTITLE9=Mirror Mirror
TTITLE10=Norma Jean Riley
TTITLE11=Nothing In The World
TTITLE12=Nowhere Bound
TTITLE13=Oh Me, Oh My Sweet Baby
TTITLE14=Old Weakness (Coming On Strong)
TTITLE15=Pick Me Up
TTITLE16=Poultry Promenade
TTITLE17=Sawmill Road
TTITLE18=The Ballads Of Conley And Billy (The Proofs In The Pickin)
TTITLE19=They Don't Make Hearts (Like They Use To)
TTITLE20=This Romeo Ain't Got Julie Yet
TTITLE21=This State Of Mind
EXTD=
EXTT0=
EXTT1=
EXTT2=
EXTT3=
EXTT4=
EXTT5=
EXTT6=
EXTT7=
EXTT8=
EXTT9=
EXTT10=
EXTT11=
EXTT12=
EXTT13=
EXTT14=
EXTT15=
EXTT16=
EXTT17=
EXTT18=
EXTT19=
EXTT20=
EXTT21=
PLAYORDER=
